HIERARCHY
ROOT hip
{
  OFFSET 0 0 0
  CHANNELS 6 Xposition Yposition Zposition Zrotation Yrotation Xrotation
  JOINT abdomen
  {
    OFFSET 0 20.6881 -0.73152
    CHANNELS 3 Zrotation Xrotation Yrotation
    JOINT chest
    {
      OFFSET 0 11.7043 -0.48768
      CHANNELS 3 Zrotation Xrotation Yrotation
      JOINT neck
      {
        OFFSET 0 22.1894 -2.19456
        CHANNELS 3 Zrotation Xrotation Yrotation
        JOINT head
        {
          OFFSET -0.24384 7.07133 1.2192
          CHANNELS 3 Zrotation Xrotation Yrotation
          JOINT leftEye
          {
            OFFSET 4.14528 8.04674 8.04672
            CHANNELS 3 Zrotation Xrotation Yrotation
            End Site
            {
              OFFSET 1 0 0
            }
          }
          JOINT rightEye
          {
            OFFSET -3.6576 8.04674 8.04672
            CHANNELS 3 Zrotation Xrotation Yrotation
            End Site
            {
              OFFSET 1 0 0
            }
          }
        }
      }
      JOINT rCollar
      {
        OFFSET -2.68224 19.2634 -4.8768
        CHANNELS 3 Zrotation Xrotation Yrotation
        JOINT rShldr
        {
          OFFSET -8.77824 -1.95073 1.46304
          CHANNELS 3 Zrotation Xrotation Yrotation
          JOINT rForeArm
          {
            OFFSET -28.1742 -1.7115 0.48768
            CHANNELS 3 Zrotation Xrotation Yrotation
            JOINT rHand
            {
              OFFSET -22.5879 0.773209 7.07136
              CHANNELS 3 Zrotation Xrotation Yrotation
              JOINT rThumb1
              {
                OFFSET -1.2192 -0.487915 3.41376
                CHANNELS 3 Zrotation Xrotation Yrotation
                JOINT rThumb2
                {
                  OFFSET -3.37035 -0.52449 3.41376
                  CHANNELS 3 Zrotation Xrotation Yrotation
                  End Site
                  {
                    OFFSET -1.78271 -1.18214 1.43049
                  }
                }
              }
              JOINT rIndex1
              {
                OFFSET -7.75947 0.938293 5.60832
                CHANNELS 3 Zrotation Xrotation Yrotation
                JOINT rIndex2
                {
                  OFFSET -2.54057 -0.884171 1.56538
                  CHANNELS 3 Zrotation Xrotation Yrotation
                  End Site
                  {
                    OFFSET -1.62519 -0.234802 1.16502
                  }
                }
              }
              JOINT rMid1
              {
                OFFSET -8.24714 1.18213 3.41376
                CHANNELS 3 Zrotation Xrotation Yrotation
                JOINT rMid2
                {
                  OFFSET -3.10165 -0.590103 1.0647
                  CHANNELS 3 Zrotation Xrotation Yrotation
                  End Site
                  {
                    OFFSET -2.48547 -0.328903 0.83742
                  }
                }
              }
              JOINT rRing1
              {
                OFFSET -8.82822 0.546677 1.51678
                CHANNELS 3 Zrotation Xrotation Yrotation
                JOINT rRing2
                {
                  OFFSET -2.60934 -0.819778 -0.0198488
                  CHANNELS 3 Zrotation Xrotation Yrotation
                  End Site
                  {
                    OFFSET -2.33842 -0.294052 0.168128
                  }
                }
              }
              JOINT rPinky1
              {
                OFFSET -8.27202 -0.0477905 -0.4584
                CHANNELS 3 Zrotation Xrotation Yrotation
                JOINT rPinky2
                {
                  OFFSET -1.82734 -0.647385 -0.700984
                  CHANNELS 3 Zrotation Xrotation Yrotation
                  End Site
                  {
                    OFFSET -1.69225 -0.51767 -0.607171
                  }
                }
              }
            }
          }
        }
      }
      JOINT lCollar
      {
        OFFSET 2.68224 19.2634 -4.8768
        CHANNELS 3 Zrotation Xrotation Yrotation
        JOINT lShldr
        {
          OFFSET 8.77824 -1.95073 1.46304
          CHANNELS 3 Zrotation Xrotation Yrotation
          JOINT lForeArm
          {
            OFFSET 28.1742 -1.7115 0.48768
            CHANNELS 3 Zrotation Xrotation Yrotation
            JOINT lHand
            {
              OFFSET 22.5879 0.773209 7.07136
              CHANNELS 3 Zrotation Xrotation Yrotation
              JOINT lThumb1
              {
                OFFSET 1.2192 -0.487915 3.41376
                CHANNELS 3 Zrotation Xrotation Yrotation
                JOINT lThumb2
                {
                  OFFSET 3.37035 -0.52449 3.41376
                  CHANNELS 3 Zrotation Xrotation Yrotation
                  End Site
                  {
                    OFFSET 1.78271 -1.18214 1.43049
                  }
                }
              }
              JOINT lIndex1
              {
                OFFSET 7.75947 0.938293 5.60832
                CHANNELS 3 Zrotation Xrotation Yrotation
                JOINT lIndex2
                {
                  OFFSET 2.54057 -0.884171 1.56538
                  CHANNELS 3 Zrotation Xrotation Yrotation
                  End Site
                  {
                    OFFSET 1.62519 -0.234802 1.16502
                  }
                }
              }
              JOINT lMid1
              {
                OFFSET 8.24714 1.18213 3.41376
                CHANNELS 3 Zrotation Xrotation Yrotation
                JOINT lMid2
                {
                  OFFSET 3.10165 -0.590103 1.0647
                  CHANNELS 3 Zrotation Xrotation Yrotation
                  End Site
                  {
                    OFFSET 2.48547 -0.328903 0.83742
                  }
                }
              }
              JOINT lRing1
              {
                OFFSET 8.82822 0.546677 1.51678
                CHANNELS 3 Zrotation Xrotation Yrotation
                JOINT lRing2
                {
                  OFFSET 2.60934 -0.819778 -0.0198488
                  CHANNELS 3 Zrotation Xrotation Yrotation
                  End Site
                  {
                    OFFSET 2.33842 -0.294052 0.168128
                  }
                }
              }
              JOINT lPinky1
              {
                OFFSET 8.27202 -0.0477905 -0.4584
                CHANNELS 3 Zrotation Xrotation Yrotation
                JOINT lPinky2
                {
                  OFFSET 1.82734 -0.647385 -0.700984
                  CHANNELS 3 Zrotation Xrotation Yrotation
                  End Site
                  {
                    OFFSET 1.69225 -0.51767 -0.607171
                  }
                }
              }
            }
          }
        }
      }
    }
  }
  JOINT rButtock
  {
    OFFSET -8.77824 4.35084 1.2192
    CHANNELS 3 Zrotation Xrotation Yrotation
    JOINT rThigh
    {
      OFFSET 0 -1.70687 -2.19456
      CHANNELS 3 Zrotation Xrotation Yrotation
      JOINT rShin
      {
        OFFSET 0 -36.8199 0.73152
        CHANNELS 3 Zrotation Xrotation Yrotation
        JOINT rFoot
        {
          OFFSET 0.73152 -45.1104 -5.12064
          CHANNELS 3 Zrotation Xrotation Yrotation
          End Site
          {
            OFFSET -1.1221 -3.69964 12.103
          }
        }
      }
    }
  }
  JOINT lButtock
  {
    OFFSET 8.77824 4.35084 1.2192
    CHANNELS 3 Zrotation Xrotation Yrotation
    JOINT lThigh
    {
      OFFSET 0 -1.70687 -2.19456
      CHANNELS 3 Zrotation Xrotation Yrotation
      JOINT lShin
      {
        OFFSET 0 -36.8199 0.73152
        CHANNELS 3 Zrotation Xrotation Yrotation
        JOINT lFoot
        {
          OFFSET -0.73152 -45.1104 -5.12064
          CHANNELS 3 Zrotation Xrotation Yrotation
          End Site
          {
            OFFSET 1.1221 -3.69964 12.103
          }
        }
      }
    }
  }
}
MOTION
Frames:	7
Frame Time:	0.00833333
5.09724 83.8172 25.225 173.307 6.6093 -177.829 -13.1223 -1.17822 3.37207 0.431489 4.05249 0.933761 2.39707 -18.3555 0.238135 -0.742241 24.2918 1.34207 -0.0 0.0 0.0 -0.0 0.0 0.0 -3.61131e-13 9.35272e-14 1.28604e-13 81.2161 8.75085 -3.6405 -12.8997 -6.10008 23.3653 -1.60011 33.455 5.32704 1.10715e-09 -1.44574e-09 2.26546e-09 1.97186e-09 -2.52029e-09 3.87723e-09 1.10716e-09 -1.44574e-09 2.26546e-09 7.73091 5.47488 0.417314 1.10715e-09 -1.44575e-09 2.26547e-09 2.90554 0.965183 0.102902 1.10715e-09 -1.44575e-09 2.26546e-09 10.2786 0.731801 0.0259123 1.10714e-09 -1.44575e-09 2.26546e-09 2.22167 -0.733487 -0.20892 -3.61083e-13 9.35301e-14 1.28384e-13 -78.0965 -6.83393 -1.43574 7.3179 -2.66416 -12.859 13.3526 67.5396 -19.8641 -2.38059e-09 4.32167e-10 1.94613e-09 -3.97316e-09 7.03779e-10 3.45246e-09 -2.3806e-09 4.32166e-10 1.94614e-09 -7.73091 5.47488 -0.417314 -2.38059e-09 4.32168e-10 1.94613e-09 -2.90554 0.965183 -0.102902 -2.3806e-09 4.32169e-10 1.94613e-09 -10.2786 0.731801 -0.0259123 -2.38059e-09 4.32171e-10 1.94612e-09 -2.22167 -0.733487 0.20892 -2.03217e-16 0.0 -3.88251e-19 -11.3722 -29.9163 -5.07441 -2.87249 73.6155 2.92217 2.10917 17.6987 -14.965 2.03217e-16 0.0 3.88251e-19 -13.2596 -18.0266 0.935401 0.0307294 21.9396 0.128981 0.636298 1.21183 11.0592
5.03174 83.7948 24.4426 173.287 6.0666 -177.757 -13.2551 -1.2532 2.80451 0.591162 4.08009 0.773812 2.40761 -18.3076 0.252318 -0.745031 24.6093 1.44123 -0.0 0.0 0.0 -0.0 0.0 0.0 -3.3126e-13 3.16671e-14 1.58567e-13 81.0969 8.22374 -4.02684 -12.7771 -6.00904 23.1239 -1.69175 34.2524 5.49066 8.59191e-10 -1.12762e-09 1.85938e-09 1.53396e-09 -1.96699e-09 3.18131e-09 8.59205e-10 -1.12763e-09 1.85937e-09 7.73091 5.47488 0.417314 8.59197e-10 -1.12763e-09 1.85939e-09 2.90554 0.965183 0.102902 8.592e-10 -1.12763e-09 1.85938e-09 10.2786 0.731801 0.0259123 8.5919e-10 -1.12763e-09 1.85938e-09 2.22167 -0.733487 -0.20892 -3.3122e-13 3.16713e-14 1.58393e-13 -78.2695 -5.05384 -2.33368 7.45131 -2.73058 -13.1012 12.0101 66.01 -18.4027 -2.09304e-09 3.841e-10 1.75829e-09 -3.49515e-09 6.29565e-10 3.1152e-09 -2.09305e-09 3.84098e-10 1.75829e-09 -7.73091 5.47488 -0.417314 -2.09303e-09 3.84099e-10 1.75829e-09 -2.90554 0.965183 -0.102902 -2.09304e-09 3.84099e-10 1.75829e-09 -10.2786 0.731801 -0.0259123 -2.09303e-09 3.84102e-10 1.75828e-09 -2.22167 -0.733487 0.20892 -2.03217e-16 0.0 -3.88251e-19 -11.5656 -31.2347 -5.31244 -2.90931 73.8374 2.9988 1.7971 16.6567 -14.7282 2.03217e-16 0.0 3.88251e-19 -13.4927 -17.6435 0.812028 0.0244126 22.0557 0.0835563 0.750915 0.637228 10.9063
4.91171 83.753 23.6944 173.082 5.3393 -177.656 -13.3487 -1.30617 2.26798 0.739143 4.09968 0.623599 2.402 -18.2721 0.244951 -0.712891 24.8777 1.48616 -0.0 0.0 0.0 -0.0 0.0 0.0 -2.73896e-13 -1.03391e-14 1.67426e-13 81.0039 7.68622 -4.41309 -12.6783 -5.9358 22.9306 -1.76472 34.8568 5.6174 5.915e-10 -8.03055e-10 1.40809e-09 1.06044e-09 -1.40236e-09 2.40918e-09 5.91515e-10 -8.03059e-10 1.40808e-09 7.73091 5.47488 0.417314 5.91507e-10 -8.03065e-10 1.4081e-09 2.90554 0.965183 0.102902 5.91511e-10 -8.03064e-10 1.40809e-09 10.2786 0.731801 0.0259123 5.91499e-10 -8.03063e-10 1.40809e-09 2.22167 -0.733487 -0.20892 -2.73874e-13 -1.03341e-14 1.67277e-13 -78.3764 -3.30884 -3.23651 7.58846 -2.79974 -13.3504 10.9402 64.61 -17.2242 -1.69974e-09 2.87754e-10 1.42276e-09 -2.84127e-09 4.69014e-10 2.52015e-09 -1.69976e-09 2.87752e-10 1.42276e-09 -7.73091 5.47488 -0.417314 -1.69974e-09 2.87752e-10 1.42276e-09 -2.90554 0.965183 -0.102902 -1.69975e-09 2.87751e-10 1.42276e-09 -10.2786 0.731801 -0.0259123 -1.69974e-09 2.87754e-10 1.42275e-09 -2.22167 -0.733487 0.20892 -2.03217e-16 0.0 -3.88251e-19 -11.7019 -32.4857 -5.50614 -2.90861 73.8914 3.03717 1.48625 15.5463 -14.5478 2.03217e-16 0.0 3.88251e-19 -13.6765 -17.282 0.664496 0.0183902 22.2134 0.0369599 0.865179 0.0807397 10.8007
4.83729 83.7 22.9417 173.017 4.718 -177.558 -13.4047 -1.33485 1.77555 0.869775 4.11269 0.487611 2.37754 -18.2597 0.205749 -0.63275 25.095 1.45175 -0.0 0.0 0.0 -0.0 0.0 0.0 -1.63877e-13 -2.56834e-14 1.43033e-13 80.9479 7.14011 -4.79424 -12.6147 -5.88867 22.8068 -1.80552 35.1863 5.68736 2.55325e-10 -4.38981e-10 8.65461e-10 4.65951e-10 -7.69252e-10 1.48333e-09 2.55339e-10 -4.38984e-10 8.65451e-10 7.73091 5.47488 0.417314 2.5533e-10 -4.38988e-10 8.65469e-10 2.90554 0.965183 0.102902 2.55335e-10 -4.38987e-10 8.65458e-10 10.2786 0.731801 0.0259123 2.55324e-10 -4.38986e-10 8.65458e-10 2.22167 -0.733487 -0.20892 -1.639e-13 -2.56776e-14 1.42875e-13 -78.4087 -1.62496 -4.15436 7.72468 -2.86905 -13.5984 10.1394 63.4374 -16.3324 -1.07357e-09 1.17377e-10 8.13415e-10 -1.79903e-09 1.75519e-10 1.44532e-09 -1.07358e-09 1.17376e-10 8.13425e-10 -7.73091 5.47488 -0.417314 -1.07357e-09 1.17374e-10 8.13422e-10 -2.90554 0.965183 -0.102902 -1.07358e-09 1.17374e-10 8.13417e-10 -10.2786 0.731801 -0.0259123 -1.07357e-09 1.17376e-10 8.13409e-10 -2.22167 -0.733487 0.20892 -2.03217e-16 0.0 -3.88251e-19 -11.7627 -33.6765 -5.63819 -2.86767 73.7788 3.03559 1.15597 14.316 -14.3851 2.03217e-16 0.0 3.88251e-19 -13.8106 -16.9574 0.47872 0.0124956 22.4357 -0.011686 0.982037 -0.453201 10.761
4.83525 83.6352 22.1783 173.233 4.1823 -177.43 -13.437 -1.36258 1.30356 0.995787 4.12301 0.359287 2.33547 -18.2699 0.141726 -0.506385 25.3007 1.36003 -0.0 0.0 0.0 -0.0 0.0 0.0 -9.55701e-15 -2.89267e-14 9.4196e-14 80.9165 6.56258 -5.18158 -12.5795 -5.86292 22.738 -1.82478 35.3439 5.72074 -1.56528e-10 -1.87931e-11 2.15216e-10 -2.62259e-10 -3.8634e-11 3.75186e-10 -1.56517e-10 -1.87941e-11 2.15206e-10 7.73091 5.47488 0.417314 -1.56526e-10 -1.87961e-11 2.15222e-10 2.90554 0.965183 0.102902 -1.5652e-10 -1.87956e-11 2.15216e-10 10.2786 0.731801 0.0259123 -1.56528e-10 -1.87948e-11 2.1522e-10 2.22167 -0.733487 -0.20892 -9.64503e-15 -2.89203e-14 9.40096e-14 -78.3788 0.0116867 -5.08979 7.86303 -2.94 -13.8511 9.49411 62.407 -15.607 -2.13027e-10 -1.12203e-10 -2.13417e-11 -3.64837e-10 -2.22167e-10 -2.69536e-11 -2.13032e-10 -1.12201e-10 -2.13229e-11 -7.73091 5.47488 -0.417314 -2.13027e-10 -1.12205e-10 -2.13346e-11 -2.90554 0.965183 -0.102902 -2.13031e-10 -1.12205e-10 -2.134e-11 -10.2786 0.731801 -0.0259123 -2.13027e-10 -1.12203e-10 -2.13477e-11 -2.22167 -0.733487 0.20892 -2.03217e-16 0.0 -3.88251e-19 -11.7658 -34.819 -5.72606 -2.78395 73.4902 2.99338 0.808581 12.9943 -14.1785 2.03217e-16 0.0 3.88251e-19 -13.9053 -16.6801 0.274011 0.00705052 22.717 -0.0632443 1.10403 -0.980232 10.7543
4.75344 83.5667 21.4392 173.119 3.5314 -177.345 -13.4293 -1.37697 0.840404 1.12012 4.12455 0.233465 2.28099 -18.2793 0.0707803 -0.358796 25.4696 1.24967 -0.0 0.0 0.0 -0.0 0.0 0.0 1.38718e-13 -2.44668e-14 4.16458e-14 80.8935 5.96707 -5.57828 -12.5535 -5.84414 22.6866 -1.83574 35.4375 5.74031 -5.28978e-10 3.70689e-10 -4.26637e-10 -9.22568e-10 6.39097e-10 -7.19422e-10 -5.2897e-10 3.7069e-10 -4.26647e-10 7.73091 5.47488 0.417314 -5.28979e-10 3.7069e-10 -4.26635e-10 2.90554 0.965183 0.102902 -5.28972e-10 3.7069e-10 -4.26635e-10 10.2786 0.731801 0.0259123 -5.28978e-10 3.70691e-10 -4.26627e-10 2.22167 -0.733487 -0.20892 1.38575e-13 -2.44602e-14 4.14245e-14 -78.3007 1.64431 -6.0274 8.01149 -3.01724 -14.1224 8.89565 61.3787 -14.9291 5.94706e-10 -3.54165e-10 -8.34041e-10 9.80532e-10 -6.40741e-10 -1.45896e-09 5.94707e-10 -3.54159e-10 -8.34013e-10 -7.73091 5.47488 -0.417314 5.94706e-10 -3.54165e-10 -8.34034e-10 -2.90554 0.965183 -0.102902 5.94701e-10 -3.54166e-10 -8.34039e-10 -10.2786 0.731801 -0.0259123 5.94706e-10 -3.54164e-10 -8.34047e-10 -2.22167 -0.733487 0.20892 -2.03217e-16 0.0 -3.88251e-19 -11.7229 -35.8892 -5.78622 -2.66592 73.0296 2.9154 0.480899 11.6779 -14.0628 2.03217e-16 0.0 3.88251e-19 -13.953 -16.4074 0.0677078 0.00270705 23.0096 -0.115296 1.22769 -1.49763 10.763
4.69249 83.4875 20.7202 173.076 2.9484 -177.187 -13.3649 -1.3656 0.374484 1.24565 4.11119 0.104984 2.2194 -18.2645 0.0108464 -0.215778 25.5762 1.15964 -0.0 0.0 0.0 -0.0 0.0 0.0 2.306e-13 -1.67014e-14 6.11263e-15 80.8629 5.367 -5.98751 -12.517 -5.8178 22.615 -1.85236 35.575 5.76939 -7.46945e-10 6.42647e-10 -9.44094e-10 -1.31335e-09 1.11355e-09 -1.60465e-09 -7.4694e-10 6.42649e-10 -9.44103e-10 7.73091 5.47488 0.417314 -7.46949e-10 6.4265e-10 -9.44094e-10 2.90554 0.965183 0.102902 -7.46941e-10 6.4265e-10 -9.4409e-10 10.2786 0.731801 0.0259123 -7.46946e-10 6.42651e-10 -9.44081e-10 2.22167 -0.733487 -0.20892 2.30446e-13 -1.66956e-14 5.86415e-15 -78.1879 3.31607 -6.95224 8.17784 -3.10539 -14.4261 8.26748 60.2095 -14.2109 1.06243e-09 -5.61686e-10 -1.37721e-09 1.75629e-09 -9.96897e-10 -2.41301e-09 1.06244e-09 -5.61678e-10 -1.37718e-09 -7.73091 5.47488 -0.417314 1.06243e-09 -5.61686e-10 -1.3772e-09 -2.90554 0.965183 -0.102902 1.06243e-09 -5.61686e-10 -1.37721e-09 -10.2786 0.731801 -0.0259123 1.06243e-09 -5.61684e-10 -1.37722e-09 -2.22167 -0.733487 0.20892 -2.03217e-16 0.0 -3.88251e-19 -11.6475 -36.8634 -5.83588 -2.5237 72.4013 2.80815 0.19664 10.467 -14.1675 2.03217e-16 0.0 3.88251e-19 -13.9458 -16.0964 -0.122768 -0.000118574 23.2655 -0.165332 1.3489 -2.00278 10.7693
